<svg id="Outline" height="512" viewBox="0 0 512 512" width="512" xmlns="http://www.w3.org/2000/svg"><path d="m72 431.3 416.141-7.3-.282-16-440 7.72a24.283 24.283 0 0 0 0 48.558l440 7.72.282-16-416.141-7.298zm-16 17.119-7.863-.138a8.282 8.282 0 0 1 0-16.562l7.863-.138z"/><path d="m248 64h16v16h-16z"/><path d="m96 397.6a47.989 47.989 0 0 0 40-21.507 47.951 47.951 0 0 0 80 0 47.951 47.951 0 0 0 80 0 47.951 47.951 0 0 0 80 0 47.988 47.988 0 1 0 43-74.39 47.968 47.968 0 0 0 -40.2-69.215 47.957 47.957 0 0 0 -39.8-69.588 47.966 47.966 0 0 0 -40.2-69.215 48 48 0 1 0 -85.6 0 47.966 47.966 0 0 0 -40.2 69.215 47.957 47.957 0 0 0 -39.8 69.585 47.968 47.968 0 0 0 -40.2 69.215 48 48 0 0 0 3 95.9zm80-16a32 32 0 1 1 32-32 32 32 0 0 1 -32 32zm40-69.2a32 32 0 1 1 32-32 32 32 0 0 1 -32 32zm8-101.2a32 32 0 1 1 32 32 32 32 0 0 1 -32-32zm32 170.4a32 32 0 1 1 32-32 32 32 0 0 1 -32 32zm40-69.2a32 32 0 1 1 32-32 32 32 0 0 1 -32 32zm40 69.2a32 32 0 1 1 32-32 32 32 0 0 1 -32 32zm80-64a32 32 0 1 1 -32 32 32 32 0 0 1 32-32zm-40-69.2a32 32 0 1 1 -32 32 32 32 0 0 1 32-32zm-40-69.2a32 32 0 1 1 -32 32 32 32 0 0 1 32-32zm-40-69.6a32 32 0 1 1 -32 32 32 32 0 0 1 32-32zm-40-69.6a32 32 0 1 1 -32 32 32 32 0 0 1 32-32zm-40 69.6a32 32 0 1 1 -32 32 32 32 0 0 1 32-32zm-40 69.6a32 32 0 1 1 -32 32 32 32 0 0 1 32-32zm-40 69.2a32 32 0 1 1 -32 32 32 32 0 0 1 32-32zm-40 69.2a32 32 0 1 1 -32 32 32 32 0 0 1 32-32z"/></svg>